<?xml version="1.0" standalone="no"?>
<!DOCTYPE svg PUBLIC "-//W3C//DTD SVG 20010904//EN"
 "http://www.w3.org/TR/2001/REC-SVG-20010904/DTD/svg10.dtd">
<svg version="1.0" xmlns="http://www.w3.org/2000/svg"
 width="418.000000pt" height="418.000000pt" viewBox="0 0 418.000000 418.000000"
 preserveAspectRatio="xMidYMid meet">
<metadata>
Created by potrace 1.11, written by Peter Selinger 2001-2013
</metadata>
<g transform="translate(0.000000,418.000000) scale(0.100000,-0.100000)"
fill="#000000" stroke="none">
<path d="M830 3965 l0 -205 -113 0 c-62 0 -140 -5 -173 -11 -124 -23 -239
-111 -297 -229 l-32 -65 0 -1575 0 -1575 29 -60 c38 -77 124 -163 201 -201
l60 -29 1575 0 1575 0 60 29 c77 38 163 124 201 201 l29 60 0 1575 0 1575 -32
65 c-58 118 -173 206 -297 229 -33 6 -111 11 -173 11 l-113 0 0 205 0 205
-210 0 -210 0 0 -205 0 -205 -830 0 -830 0 0 205 0 205 -210 0 -210 0 0 -205z
m2708 -2397 l-3 -1143 -1455 0 -1455 0 -3 1143 -2 1142 1460 0 1460 0 -2
-1142z"/>
<path d="M1559 2311 c-101 -32 -191 -105 -252 -202 -54 -89 -73 -253 -42 -372
41 -158 185 -352 433 -584 209 -196 373 -343 382 -343 9 0 173 147 382 343
248 232 392 426 433 584 22 84 19 210 -6 285 -65 194 -227 308 -435 308 -130
0 -252 -47 -341 -133 l-33 -31 -32 31 c-51 48 -127 92 -197 113 -82 26 -214
26 -292 1z"/>
</g>
</svg>
